<svg width="200" height="64" viewBox="0 0 200 64" fill="none" xmlns="http://www.w3.org/2000/svg">
  <defs>
    <linearGradient id="grad" x1="12" y1="0" x2="52" y2="40" gradientUnits="userSpaceOnUse">
      <stop stop-color="#0F3C5F" />
      <stop offset="1" stop-color="#2B7FBF" />
    </linearGradient>
  </defs>
  <rect x="6" y="6" width="48" height="48" rx="8" transform="rotate(45 30 6)" fill="url(#grad)" />
  <circle cx="30" cy="30" r="18" fill="#0A2239" opacity="0.85" />
  <circle cx="30" cy="30" r="14" fill="#F3F4F6" />
  <path d="M30 20 L31.8 28.2 L40 30 L31.8 31.8 L30 40 L28.2 31.8 L20 30 L28.2 28.2 Z" fill="#2B7FBF" />
  <path d="M30 16a14 14 0 1 0 0 28a14 14 0 0 0 0-28zm0-4c9.942 0 18 8.059 18 18s-8.058 18-18 18S12 39.942 12 30 20.058 12 30 12z" fill="#0A2239" opacity="0.65" />
  <path d="M70 24c0-3.314 2.686-6 6-6h2v4h-2c-1.105 0-2 .895-2 2v22h-4V24z" fill="#0A2239" />
  <path d="M84 18h4v6.52c1.26-2.07 3.56-3.52 6.72-3.52 4.92 0 8.28 3.54 8.28 8.7V44h-4v-13.6c0-3.3-2.1-5.44-5.22-5.44-3.24 0-5.78 2.3-5.78 5.68V44h-4V18z" fill="#0A2239" />
  <path d="M123.42 20.98c4.92 0 8.9 4.08 8.9 9.02 0 .6-.04 1.26-.12 1.84h-13.3c.64 3.16 3.12 5.1 6.44 5.1 2.04 0 3.86-.72 5.38-2.04l1.98 2.98c-1.96 1.76-4.54 2.82-7.54 2.82-5.98 0-10.18-4.16-10.18-9.82 0-5.72 4.2-9.9 10.44-9.9zm-5.96 7.64h9.62c-.46-2.68-2.36-4.44-4.86-4.44-2.72 0-4.58 1.72-4.76 4.44z" fill="#0A2239" />
  <path d="M136 21.2h4.12l.44 2.96c1.28-1.92 3.6-3.18 6.36-3.18 4.78 0 8.12 3.42 8.12 8.74V44h-4V30.56c0-3.36-2.02-5.48-5.2-5.48-3.3 0-5.76 2.34-5.76 5.82V44h-4V21.2z" fill="#0A2239" />
  <path d="M169.16 18.52c0-1.56 1.22-2.72 2.96-2.72s2.96 1.16 2.96 2.72c0 1.58-1.22 2.72-2.96 2.72s-2.96-1.14-2.96-2.72zm.48 6.68h4v18.8h-4v-18.8z" fill="#0A2239" />
  <path d="M181.66 40.12l2.18-2.92c1.8 1.58 3.98 2.54 6.4 2.54 2.28 0 3.72-.96 3.72-2.52 0-1.14-.86-1.86-3.1-2.3l-3.02-.6c-4.02-.8-6.18-2.84-6.18-5.98 0-3.86 3.3-6.48 8.14-6.48 3 0 5.66.88 7.58 2.48l-2.06 2.96c-1.6-1.28-3.48-1.96-5.5-1.96-2.26 0-3.66.94-3.66 2.38 0 1.12.88 1.84 3.48 2.34l3 .58c4.04.78 6.14 2.78 6.14 6.02 0 3.96-3.32 6.64-8.46 6.64-3.3 0-6.32-1-8.66-2.88z" fill="#0A2239" />
</svg>
